# xmcd
#
# Track frame offsets:
#	150
#	13725
#	24487
#	41287
#	54075
#	63487
#	76875
#	89362
#	103612
#	114750
#	125025
#	138975
#
# Disc length: 2059 seconds
#
# Revision: 1
# Processed by: cddbd v1.5.2PL0 Copyright (c) Steve Scherf et al.
# Submitted via: audiograbber 1.83.01
#
DISCID=8e08090c
DTITLE=Whitstein Brothers - Rose of My Heart
DYEAR=1994
DGENRE=Old Time Country
TTITLE0=Rose o f My Heart
TTITLE1=Highway Headed South
TTITLE2=Kentucky
TTITLE3=My Curly Headed Baby
TTITLE4=Weary Days
TTITLE5=Weary Blues From Waiting
TTITLE6=Arkansas
TTITLE7=Bridge Over Troubled Water
TTITLE8=Eighth Wonder of the World
TTITLE9=Scared of the Blues
TTITLE10=Where the Old Red River Flows
TTITLE11=Smokey Mtn Memories
EXTD=
EXTT0=
EXTT1=
EXTT2=
EXTT3=
EXTT4=
EXTT5=
EXTT6=
EXTT7=
EXTT8=
EXTT9=
EXTT10=
EXTT11=
PLAYORDER=
